<?xml version="1.0" encoding="UTF-8" standalone="no"?>
<svg
  xmlns:dc="http://purl.org/dc/elements/1.1/"
  xmlns:cc="http://creativecommons.org/ns#"
  xmlns:rdf="http://www.w3.org/1999/02/22-rdf-syntax-ns#"
  xmlns:svg="http://www.w3.org/2000/svg"
  xmlns="http://www.w3.org/2000/svg"
  viewBox="535 60 120 700.79199"
  height="120"
  width="120"
  xml:space="preserve"
  id="svg2"
  version="1.1"><metadata
     id="metadata8"><rdf:RDF><cc:Work
         rdf:about=""><dc:format>image/svg+xml</dc:format><dc:type
  rdf:resource="http://purl.org/dc/dcmitype/StillImage" /></cc:Work></rdf:RDF></metadata><defs
  id="defs6"><clipPath
       id="clipPath20"
       clipPathUnits="userSpaceOnUse"><path
         id="path18"
         d="M 0,602.094 H 914.32 V 0 H 0 Z" /></clipPath></defs><g
  transform="matrix(1.3333333,0,0,-1.3333333,0,802.792)"
  id="g10"><path
       id="path12"
       style="fill:#e21e3f;fill-opacity:1;fill-rule:nonzero;stroke:none"
       d="M 0,0 H 913.794 V 602.095 H 0 Z" /><g
  id="g14"><g
         clip-path="url(#clipPath20)"
         id="g16"><path
           id="path22"
           style="fill:none;stroke:#2b2b2a;stroke-width:0.198;stroke-linecap:butt;stroke-linejoin:miter;stroke-miterlimit:10;stroke-dasharray:none;stroke-opacity:1"
           d="M 913.795,0 H -0.525 v 602.094 h 914.32 z" /><g
  transform="translate(386.9214,169.8595)"
  id="g24"><path
             id="path26"
             style="fill:#ffffff;fill-opacity:1;fill-rule:nonzero;stroke:none"
             d="m 0,0 c -3.45,11.962 -7.019,24.33 -6.822,37.482 0.129,8.692 2.847,16.887 5.476,24.813 2.571,7.747 5.232,15.759 5.536,24.324 0.44,12.904 -2.61,22.107 -5.559,31.008 -2.357,7.112 -4.795,14.468 -5.455,23.751 -0.939,12.982 2.658,25.573 6.14,37.75 3.261,11.417 6.344,22.202 5.971,33.239 -0.29,8.253 -3.209,16.179 -6.033,23.843 -2.671,7.246 -5.431,14.737 -6.08,22.653 -1.242,14.899 2.629,26.78 6.374,38.271 2.785,8.545 5.418,16.633 6.036,25.722 h 207.174 c 4.464,0 8.095,-3.63 8.095,-8.093 l 0.004,-179.85 c 0.033,-0.808 0.736,-20.092 -5.548,-46.725 C 211.562,72.296 206.1,57.033 199.074,42.825 190.311,25.105 179.073,8.988 165.672,-5.076 152.355,-19.046 138.514,-31.443 124.533,-41.922 113.295,-50.339 101.964,-57.537 90.852,-63.317 74.905,-71.613 64.098,-74.666 59.97,-75.63 c -4.157,0.976 -15.043,4.058 -31.039,12.407 -8.253,4.303 -16.675,9.417 -25.033,15.198 1.493,4.244 2.299,8.089 2.459,11.727 C 6.94,-24.052 3.568,-12.369 0,0 m -34.925,57.894 c 2.451,7.107 4.984,14.458 5.536,21.875 1.19,15.799 -2.279,26.406 -5.632,36.663 -2.581,7.89 -5.017,15.342 -5.374,24.907 -0.454,12.499 2.992,24.835 6.324,36.765 3.581,12.819 6.963,24.927 5.808,37.047 -0.755,7.84 -3.56,15.338 -6.274,22.589 -2.899,7.75 -5.638,15.071 -5.858,22.427 -0.242,8.456 2.631,18.054 5.675,28.216 3.316,11.072 6.741,22.51 6.986,34.473 h 15.625 c -0.369,-8.937 -3.075,-17.914 -5.932,-27.397 -3.79,-12.581 -7.711,-25.589 -6.337,-39.524 0.743,-7.496 3.548,-14.986 6.26,-22.229 2.816,-7.521 5.476,-14.625 5.843,-21.434 0.597,-10.812 -2.509,-21.418 -5.795,-32.646 -3.882,-13.267 -7.898,-26.985 -6.305,-42.534 0.8,-7.824 3.284,-14.96 5.687,-21.86 2.571,-7.386 4.999,-14.361 5.321,-21.779 0.464,-10.754 -2.538,-20.166 -5.443,-29.268 -2.789,-8.737 -5.671,-17.771 -5.572,-28.052 0.108,-12.531 3.674,-24.938 7.123,-36.937 3.682,-12.813 7.163,-24.93 6.149,-36.055 -5.106,4.056 -10.203,8.373 -15.171,12.854 l -1.885,1.734 c -1.376,8.287 -3.707,16.427 -5.963,24.303 -3.315,11.577 -6.446,22.511 -6.266,32.706 0.141,7.708 2.849,15.561 5.47,23.156 m -57.656,191.207 0.002,-0.003 c 0.748,-7.487 3.549,-14.961 6.257,-22.191 2.822,-7.526 5.487,-14.636 5.852,-21.461 0.603,-10.814 -2.505,-21.425 -5.796,-32.66 -3.885,-13.261 -7.902,-26.974 -6.313,-42.515 0.802,-7.821 3.288,-14.952 5.691,-21.848 2.575,-7.394 5.01,-14.379 5.329,-21.813 0.431,-9.957 -2.113,-18.768 -4.8,-27.247 -3.67,9.408 -6.681,19.042 -8.961,28.682 -6.333,26.784 -5.584,46.817 -5.576,47.061 v 179.656 c 0,4.464 3.631,8.094 8.093,8.094 h 12.337 v -0.005 c 1.242,-11.158 -2.15,-22.369 -5.744,-34.24 -3.804,-12.577 -7.74,-25.583 -6.371,-39.51 M -45.8,213.592 h -0.002 c 1.08,-10.933 -2.248,-23.138 -5.771,-36.06 -3.415,-12.522 -6.946,-25.471 -6.34,-37.652 0.369,-7.628 2.838,-15.031 5.451,-22.868 2.403,-7.203 4.887,-14.652 5.559,-22.236 0.962,-10.999 -2.298,-22.052 -5.451,-32.741 -2.771,-9.386 -5.634,-19.093 -5.561,-28.638 0.07,-10.252 3.056,-21.148 6.137,-31.771 -7.999,9.238 -15.149,19.284 -21.288,29.922 -0.469,0.812 -0.919,1.628 -1.367,2.445 l -0.34,0.615 c 0.714,7.208 3.015,14.154 5.24,20.874 2.565,7.752 5.219,15.766 5.528,24.329 0.448,12.869 -2.6,22.058 -5.549,30.944 -2.363,7.124 -4.808,14.491 -5.459,23.801 -0.939,12.971 2.654,25.552 6.129,37.72 3.264,11.427 6.347,22.219 5.965,33.267 -0.288,8.252 -3.205,16.182 -6.027,23.849 -2.665,7.243 -5.42,14.732 -6.069,22.641 -1.25,14.894 2.627,26.77 6.378,38.254 3.467,10.611 6.745,20.652 6.102,32.569 h 17.838 c 0.331,-10.414 -2.799,-19.228 -6.115,-28.556 -3.599,-10.129 -7.323,-20.602 -7.103,-34.179 0.118,-7.842 2.828,-15.134 5.697,-22.855 2.727,-7.336 5.547,-14.923 6.418,-23.674 m 277.839,-78.37 v 188.593 c 0,5.634 -4.584,10.217 -10.218,10.217 h -323.723 c -5.612,0 -10.178,-4.566 -10.178,-10.179 l 0.004,-188.501 c -0.01,-0.218 -0.234,-5.454 0.371,-14.176 0.56,-8.023 1.962,-20.704 5.466,-35.556 3.338,-14.144 7.995,-27.888 13.842,-40.853 1.051,-2.324 2.134,-4.631 3.255,-6.901 3.191,-6.45 6.772,-12.827 10.643,-18.954 7.208,-11.412 15.516,-22.078 24.689,-31.7 1.856,-1.947 3.697,-3.834 5.532,-5.689 5.917,-5.958 11.945,-11.633 17.908,-16.864 5.281,-4.645 10.732,-9.133 16.2,-13.341 4.07,-3.127 8.169,-6.116 12.184,-8.886 30.168,-20.781 52.839,-27.352 59.114,-28.88 l 2.882,-0.573 2.927,0.604 c 4.355,1.054 16.3,4.452 33.074,13.182 11.653,6.055 23.507,13.582 35.23,22.369 14.472,10.843 28.779,23.654 42.526,38.077 14.17,14.863 26.059,31.906 35.336,50.655 7.402,14.978 13.154,31.044 17.093,47.754 3.504,14.852 4.906,27.533 5.466,35.556 0.578,8.314 0.404,13.392 0.377,14.046" /></g><g
  transform="translate(507.0178,295.5209)"
  id="g28"><path
             id="path30"
             style="fill:#ffffff;fill-opacity:1;fill-rule:nonzero;stroke:none"
             d="m 0,0 c -0.017,0.041 -0.03,0.07 -0.045,0.102 -0.228,0.421 -0.466,0.629 -0.579,0.679 -1.278,0.927 -3.688,0.28 -3.916,-1.769 -0.192,-1.967 1.344,-3.265 3.198,-3.423 1.002,-0.102 1.307,0.821 1.419,1.794 L 0.08,-2.625 c 0.125,0.743 0.139,1.294 0.109,1.721 C 0.191,-0.884 0.094,-0.202 0,0" /></g><g
  transform="translate(502.1926,310.1996)"
  id="g32"><path
             id="path34"
             style="fill:#ffffff;fill-opacity:1;fill-rule:nonzero;stroke:none"
             d="M 0,0 C 0.557,-3.192 1.789,-11.436 4.88,-12.337 6.55,-8.403 4.053,-1.543 0,0" /></g><g
  transform="translate(440.2523,420.5818)"
  id="g36"><path
             id="path38"
             style="fill:#ffffff;fill-opacity:1;fill-rule:nonzero;stroke:none"
             d="M 0,0 C 1.179,0.285 2.861,1.815 2.053,3.14 0.94,4.967 -1.119,5.126 -3.099,5.417 -1.966,3.715 -3.245,-0.761 0,0" /></g><g
  transform="translate(417.4742,415.7021)"
  id="g40"><path
             id="path42"
             style="fill:#ffffff;fill-opacity:1;fill-rule:nonzero;stroke:none"
             d="M 0,0 C 0.715,4.702 -5.225,1.523 -6.311,-0.642 -4.695,-0.536 -0.398,-2.318 0,0" /></g><g
  transform="translate(429.3465,423.1586)"
  id="g44"><path
             id="path46"
             style="fill:#ffffff;fill-opacity:1;fill-rule:nonzero;stroke:none"
             d="M 0,0 C 2.053,3.933 -3.794,4.297 -5.754,3.125 -4.913,2.648 -0.735,-1.384 0,0" /></g><g
  transform="translate(418.1498,389.7721)"
  id="g48"><path
             id="path50"
             style="fill:#ffffff;fill-opacity:1;fill-rule:nonzero;stroke:none"
             d="M 0,0 C 1.093,-7.012 6.833,0.152 0,0" /></g><g
  transform="translate(451.2719,351.5316)"
  id="g52"><path
             id="path54"
             style="fill:#ffffff;fill-opacity:1;fill-rule:nonzero;stroke:none"
             d="m 0,0 c 2.451,2.708 4.517,4.695 7.702,6.615 -4.233,2.914 -11.398,6.987 -8.762,13.469 1.193,2.966 4.187,-1.106 6.424,-1.318 3.1,-0.285 6.847,-0.357 9.753,0.914 -0.886,1.132 -3.753,1.649 -5.031,2.887 -2.424,2.351 -3.206,5.37 -2.219,8.595 0.524,1.635 -7.873,6.76 -9.682,8.541 -3.993,3.908 -9.919,9.555 -9.085,15.72 0.232,1.596 0.496,4.225 1.801,5.337 0.662,0.55 1.192,6.973 0.867,7.623 -1.847,-0.915 -4.171,-1.756 -5.827,0.039 -2.033,2.165 -1.635,-2.166 -1.436,-2.755 0.853,-2.483 2.072,-4.675 2.298,-7.344 0.151,-2.357 -2.497,-5.012 -2.497,-1.721 -1.835,2.013 -3.133,4.026 -4.53,6.37 -0.53,0.893 0.351,7.436 -1.43,6.151 -1.086,-0.794 -2.635,0.08 -3.523,-0.84 -0.854,-0.835 -0.125,-2.516 -0.53,-3.59 -0.867,-2.555 -4.489,-0.343 -5.727,0.338 -0.689,-3.158 -4.675,-4.224 -1.901,-7.542 2.888,-3.43 7.483,-2.271 10.376,-5.866 3.086,-3.907 -0.82,-8.125 -4.641,-8.86 -0.92,-0.185 -1.881,-2 -1.119,-2.834 1.609,-1.808 1.04,-4.583 0.093,-6.476 1.788,-0.722 4.164,-0.139 5.707,0.841 2.106,1.324 0.955,3.106 3.53,3.125 0.363,0.013 1.887,-4.595 2.099,-5.045 1.41,-2.948 1.066,-5.278 -0.543,-8.079 -2.04,-3.489 2.059,-8.833 1.411,-12.713 -0.915,-5.318 -3.782,-4.715 -7.63,-2.1 -1.019,-0.808 2.543,-3.039 3.06,-3.178 3.815,-1.066 6.006,1.172 6.874,4.311 0.834,2.999 0.099,6.045 1.363,9.091 1.59,3.728 4.649,1.059 3.218,-0.331 C -13.086,15.839 -4.212,9.767 -5.245,5.404 -5.65,3.827 -1.405,0.092 0,0" /></g><g
  transform="translate(417.7123,318.7216)"
  id="g56"><path
             id="path58"
             style="fill:#ffffff;fill-opacity:1;fill-rule:nonzero;stroke:none"
             d="M 0,0 C -1.609,2.628 -8.535,-0.464 -9.072,-2.934 -8.178,-2.934 2.589,-4.324 0,0" /></g><g
  transform="translate(415.0632,295.1022)"
  id="g60"><path
             id="path62"
             style="fill:#ffffff;fill-opacity:1;fill-rule:nonzero;stroke:none"
             d="m 0,0 c -0.426,2.105 -6.586,-2.118 -4.697,-5.602 0.047,-0.01 0.213,-0.199 0.135,-0.264 C -3.132,-4.503 0.504,-2.489 0,0" /></g><g
  transform="translate(433.3521,288.9576)"
  id="g64"><path
             id="path66"
             style="fill:#ffffff;fill-opacity:1;fill-rule:nonzero;stroke:none"
             d="M 0,0 C -1.245,-2.781 -5.707,-2.014 -6.687,-3.894 -4.403,-8.781 4.04,0.033 0,0" /></g><g
  transform="translate(405.4625,303.4526)"
  id="g68"><path
             id="path70"
             style="fill:#ffffff;fill-opacity:1;fill-rule:nonzero;stroke:none"
             d="M 0,0 C 0.966,0.509 6.535,0.138 3.754,3.131 2.351,2.655 -0.544,2.205 0,0" /></g><g
  transform="translate(462.906,311.0339)"
  id="g72"><path
             id="path74"
             style="fill:#ffffff;fill-opacity:1;fill-rule:nonzero;stroke:none"
             d="m 0,0 c 0.987,0.238 6.536,2.741 6.987,0.927 0.357,-1.271 -0.451,-2.873 1.642,-3 0.986,-0.066 3.113,0.49 3.298,1.742 0.198,1.536 2.218,-0.788 2.555,-0.928 1.603,-0.675 4.94,0.094 5.82,1.71 -3.145,0.681 -4.86,3.111 -3.31,6.349 1.345,2.808 1.927,1.927 0.205,4.913 -1.032,1.795 -1.563,3.762 -2.218,5.709 C 11.403,11.098 7.635,7.403 0.074,6.032 -4.965,5.138 -16.495,9.515 -12.833,16.468 c 1.285,2.449 4.999,4.432 7.816,5.101 0.041,0.01 0.078,0.015 0.118,0.024 0.263,0.06 0.53,0.124 0.774,0.159 3.947,0.563 -0.629,-3.556 -0.762,-4.179 -0.787,-4.032 5.781,-0.675 6.828,0.292 1.194,1.1 0.762,3.233 0.518,4.628 -0.369,2.11 -0.494,4.33 -0.992,6.408 -0.908,0.067 -1.689,-0.606 -2.39,-1.084 -2.44,-1.664 -5.01,-3.125 -7.434,-4.817 -3.222,-2.251 -6.303,-4.703 -9.234,-7.321 -2.248,-2.007 -4.415,-4.109 -6.48,-6.303 -2.549,-2.708 -8.82,-9.257 -13.322,-6.522 -1.213,0.722 -3.033,5.184 -3.861,5.184 -3.344,0.067 -1.543,-1.457 -2.934,-3.694 -0.694,-1.119 -2.058,-1.325 -3.098,-1.888 0.444,-1.324 3.29,-2.946 1.39,-3.972 -1.767,-0.908 -4.562,-0.828 -6.509,-1.298 0.696,-1.45 1.53,-2.96 0.696,-4.563 -0.57,-1.112 1.669,-1.953 2.218,-2.919 0.57,-1.153 0.152,-2.245 1.265,-2.908 1.648,-0.927 2.489,-2.483 2.225,-4.429 -0.597,-4.537 5.998,3.092 6.217,3.304 1.848,1.887 10.23,3.873 8.205,-1.205 -0.637,-1.642 -2.08,-2.834 -0.795,-4.689 2.377,0.186 3.059,0.305 5.178,-0.853 4.45,2.655 2.199,3.966 0.847,7.971 -0.47,1.424 5.291,1.358 6.648,3.133 3.054,3.999 3.119,-1.153 3.384,-3.841 1.675,0.132 2.364,2.132 2.676,3.457 0.695,2.768 4.709,-2.125 4.537,0.529 -0.106,1.59 0.172,3.165 1.152,4.477 1.112,1.516 2.364,-1.464 2.165,-2.351 -0.417,-2.134 5.503,-1.975 7.225,-2.569 0.059,-0.008 0.12,-0.016 0.177,-0.025 C 2.157,-8.55 -2.639,-0.632 0,0" /></g><g
  transform="translate(435.5904,249.9891)"
  id="g76"><path
             id="path78"
             style="fill:#ffffff;fill-opacity:1;fill-rule:nonzero;stroke:none"
             d="M 0,0 C 7.522,3.88 -1.126,5.74 -3.628,1.874 -2.092,1.9 -0.966,1.092 0,0" /></g><g
  transform="translate(456.2655,221.1921)"
  id="g80"><path
             id="path82"
             style="fill:#ffffff;fill-opacity:1;fill-rule:nonzero;stroke:none"
             d="M 0,0 C 0.086,4.913 -4.092,0.092 -5.325,-0.867 -4.291,-1.332 -0.054,-2.386 0,0" /></g><g
  transform="translate(425.8837,239.0559)"
  id="g84"><path
             id="path86"
             style="fill:#ffffff;fill-opacity:1;fill-rule:nonzero;stroke:none"
             d="M 0,0 C 1.132,0.783 7.085,2.392 4.542,4.152 1.801,6.027 0.086,2.014 0,0" /></g><g
  transform="translate(433.0077,224.9321)"
  id="g88"><path
             id="path90"
             style="fill:#ffffff;fill-opacity:1;fill-rule:nonzero;stroke:none"
             d="M 0,0 C 0.338,1.372 1.464,2.046 2.597,2.636 0.762,8.324 -3.164,1.722 0,0" /></g><g
  transform="translate(458.2257,226.0512)"
  id="g92"><path
             id="path94"
             style="fill:#ffffff;fill-opacity:1;fill-rule:nonzero;stroke:none"
             d="m 0,0 c 3.039,2.901 1.324,2.914 -1.457,5.225 -1.835,1.583 -2.37,3.418 -0.278,4.94 1.827,1.304 5.753,-2.139 8.025,-1.875 1.92,0.247 5.059,1.021 5.708,3.179 0.232,0.795 1.418,8.211 3.284,5.318 1.523,-2.338 0.014,-4.569 3.37,-6.469 2.026,-1.12 6.1,-2.556 8.363,-1.61 -2.755,1.987 -7.018,4.204 -3.49,7.608 1.194,1.133 0.101,3.815 0.815,5.35 1.047,2.105 3.464,2.357 2.027,4.317 -1.152,1.577 0.828,3.12 1.728,4.172 -0.496,1.96 0.597,3.052 -0.55,4.941 -1.695,2.847 -5.297,5.727 -4.013,9.614 3.166,9.482 11.482,15.07 21.415,16.574 0.537,0.086 3.476,-0.087 3.543,0.728 0.225,2.715 -1.332,0.927 -3.086,2.125 -5.482,3.735 2.688,5.887 -3.894,21.018 -4.483,-0.226 -7.634,-4.053 -10.363,-7.291 -2.78,-3.31 -5.74,-5.125 -9.799,-6.382 C 17.877,70.428 14.428,70.468 11.322,68.349 9.263,66.972 7.177,65.587 5.509,63.774 4.04,62.184 3.422,59.714 1.628,58.457 c -2.25,-1.61 -1.907,-1.1 -2.622,-3.709 -0.47,-1.807 -0.331,-3.615 -0.741,-5.423 -0.835,-4.019 -3.834,-6.734 -7.146,-8.787 3.65,-1.172 6.364,-1.04 8.807,2.371 0.887,1.258 1.544,2.702 2.246,4.092 0.621,1.105 1.927,0.331 1.641,-0.768 -1.02,-3.947 3.404,-5.185 4.755,-8.748 1.39,-3.675 -0.927,-7.952 -4.085,-9.898 -2.61,-1.604 -5.662,-1.18 -7.747,-3.617 -1.821,-2.112 -5.227,-6.899 -8.497,-4.163 -0.571,0.528 -2.127,1.31 -2.305,2.203 -0.24,1.397 0.41,3.815 -1.193,4.734 -1.43,0.829 -6.416,-4.329 -7.244,-5.223 1.736,-1.398 4.914,-1.921 5.497,-4.431 0.278,-1.21 -6.463,2.074 -8.005,2.114 -0.431,0.013 -1.915,-6.457 -1.901,-7.576 0.039,-2.57 6.111,-0.358 7.706,-0.49 0.114,-2.43 -2.105,-2.013 -3.754,-2.715 -2.609,-1.073 1.318,-4.316 1.954,-5.495 0.787,-1.537 0.172,-4.385 2.927,-3.192 2.264,0.96 1.848,4.007 3.801,5.43 1.549,1.159 4.667,2.774 6.656,2.642 2.8,-0.16 3.966,-2.106 1.682,-4.086 -2.896,-2.45 0.165,-2.82 0.986,-4.463 2.377,0.667 3.866,-1.76 4.871,-3.35 0.007,-0.002 0.011,0.001 0.018,-10e-4 C 1.302,-2.693 -1.466,-1.4 0,0" /></g><g
  transform="translate(515.8596,215.3123)"
  id="g96"><path
             id="path98"
             style="fill:#ffffff;fill-opacity:1;fill-rule:nonzero;stroke:none"
             d="M 0,0 C 1.252,1.032 7.94,5.309 4.172,7.661 3.337,6.475 0.829,6.912 -0.357,5.496 -1.55,4.085 -1.291,1.257 0,0" /></g><g
  transform="translate(534.334,216.4241)"
  id="g100"><path
             id="path102"
             style="fill:#ffffff;fill-opacity:1;fill-rule:nonzero;stroke:none"
             d="M 0,0 C -2.913,1.073 -3.073,-4.543 -0.437,-5.702 0.027,-3.615 2.709,-1 0,0" /></g><g
  transform="translate(516.5349,232.1116)"
  id="g104"><path
             id="path106"
             style="fill:#ffffff;fill-opacity:1;fill-rule:nonzero;stroke:none"
             d="m 0,0 c -2.303,0.297 -4.158,-3.067 -3.615,-5.138 -0.08,0.258 0.152,0.065 0,0 C -0.821,-4.04 0.842,-3.511 0,0" /></g><g
  transform="translate(545.4852,216.2657)"
  id="g108"><path
             id="path110"
             style="fill:#ffffff;fill-opacity:1;fill-rule:nonzero;stroke:none"
             d="M 0,0 C -2.775,2.403 -3.714,-0.464 -2.239,-2.714 -1.483,-1.808 -0.762,-0.887 0,0" /></g><g
  transform="translate(572.157,359.3387)"
  id="g112"><path
             id="path114"
             style="fill:#ffffff;fill-opacity:1;fill-rule:nonzero;stroke:none"
             d="M 0,0 C 5.569,3.767 9.958,12.27 1.378,15.965 0.9,11.019 0.881,8.84 -3.139,5.509 -7.112,2.232 -12.866,2.357 -16.733,-1.305 c -1.821,-1.715 -3.549,-4.753 -2.496,-7.336 0.371,-0.94 2.232,-3.549 1.555,-4.669 -1.787,-2.86 -6.985,8.344 -7.138,9.642 -1.628,12.885 15.183,16.985 23.004,22.626 4.463,3.238 8.324,6.059 8.774,11.965 C 7.283,34.844 4.635,41.041 0.133,41.551 0.02,41.563 0.961,35.552 1.01,34.876 1.196,32.278 0.754,29.82 -0.847,27.68 c -2.734,-3.654 -7.611,-4.636 -11.662,-6.139 -4.502,-1.663 -9.335,-2.437 -12.786,-6.019 -2.079,-2.146 -3.058,-5.139 -3.761,-7.987 -0.345,-1.357 -0.663,-12.375 -3.442,-5.688 -0.531,1.272 -0.126,7.622 1.164,11.198 2.066,5.509 6.516,9.416 10.436,13.501 4.979,5.118 10.303,9.495 14.296,15.52 2.652,4.003 5.13,8.878 5.115,13.796 -0.024,8.259 -10.434,16.444 -18.464,15.182 -6.489,-1.02 -11.349,-2.695 -15.362,-8.099 -1.828,-2.457 -3.979,-6.23 -3.94,-9.396 0.027,-3.443 1.563,-5.88 2.345,-9.164 1.158,-4.794 5.939,-13.892 -1.41,-16.589 1.805,-2.909 5.843,-0.959 7.975,0.618 8.005,5.922 6.388,13.419 4.427,21.957 -1.232,5.364 -1.915,10.701 3.879,13.528 5.165,2.509 10.423,0.828 13.231,-4.046 5.799,-10.091 -4.663,-21.242 -11.303,-27.718 -7.146,-6.946 -15.568,-13.501 -18.21,-23.454 -2.881,-10.912 3.568,-21.626 10.024,-29.783 1.385,-1.75 6.628,-8.033 7.914,-10.04 3.238,-5.105 7.191,-11.6 4.847,-17.772 -4.066,-10.601 -19.07,-8.767 -24.858,-1.325 -0.365,0.474 -0.687,0.993 -1.036,1.483 -0.02,0.028 -0.043,0.052 -0.063,0.08 -0.038,0.053 -0.073,0.115 -0.111,0.169 -0.792,1.129 -1.558,2.282 -2.283,3.475 -0.368,0.592 -0.715,1.188 -1.072,1.792 -0.211,0.367 -0.43,0.727 -0.637,1.097 -1.567,2.725 -2.987,5.421 -4.222,7.912 -2.5,4.765 -4.542,10.64 -7.64,14.929 -1.497,-3.41 -2.887,-6.515 -5.649,-9.112 -4.912,-4.635 3.729,-6.945 1.643,-10.369 -1.894,-3.112 -9.615,1.523 -10.96,3.219 -1.303,1.628 -2.555,3.582 -2.932,5.674 -0.126,0.668 0.237,4.298 -0.265,4.575 -2.278,-2.403 -5.098,-4.992 -7.033,-7.674 -3.377,-4.814 0.848,-6.496 4.755,-8.449 8.37,-4.192 15.985,-9.489 15.177,-19.593 -0.318,-3.841 -1.622,-9.629 -0.412,-13.389 0.702,-2.218 1.757,-2.649 2.942,-4.403 1.55,-2.279 -2.517,-0.769 -2.743,-0.769 -4.72,0.218 -3.834,-7.223 -3.879,-9.74 -0.08,-5.404 -3.106,-6.709 -7.105,-9.158 l 0.257,-0.399 -0.002,-0.001 c 0,0 0.5,-0.87 1.422,-1.055 0.019,-0.003 0.037,-0.008 0.056,-0.01 0.416,-0.07 0.885,-0.021 1.466,0.336 l 0.039,0.027 c 3.457,1.833 7.735,10.189 8.237,11.332 0.842,2.133 2.602,1.464 3.482,-0.185 0.775,-1.484 -0.549,-1.656 1.133,-3.39 1.107,-1.179 2.629,-2.172 3.98,-3.06 5.919,-3.84 13.296,-6.065 18.229,-11.39 3.729,-4.091 3.145,-12.328 -0.483,-16.307 -4.735,-5.185 -10.33,-1.59 -16.157,-2.801 -2.145,-0.444 -2.563,-5.575 -1.418,-7.231 1.743,-2.596 4.782,-2.523 4.08,-6.728 -1.482,-8.781 5.443,2.523 7.768,4.264 1.687,1.326 4.482,2.981 6.647,1.721 1.993,-1.164 -2.762,-5.787 -3.582,-6.794 1.457,-0.873 2.814,-1.793 4.198,-2.833 0.348,1.449 0.628,2.835 1.723,3.823 0.051,0.039 0.087,0.083 0.144,0.119 0.161,0.131 0.28,0.281 0.477,0.394 2.252,1.266 1.913,-0.389 3.138,-1.395 0.743,-0.617 2.729,-0.949 3.682,-1.511 2.444,-1.377 0.013,3.895 0.04,4.119 0.418,4.277 9.052,6.29 7.039,10.966 -0.947,2.231 1.185,3.376 1.728,1.104 0.425,-1.82 3.265,-1.978 4.615,-1.502 -1.542,1.172 -3.073,2.265 -4.131,3.92 -1.164,1.821 -0.76,2.723 0.044,3.471 0.037,0.041 0.085,0.068 0.125,0.104 0.769,0.674 1.821,1.253 2.287,2.318 -1,1.55 -5.442,1.954 -1.232,3.628 2.815,1.127 6.119,-0.085 8.688,2.497 -2.489,0.615 -6.111,-2.574 -8.171,1.145 -0.947,1.67 -1.669,3.601 -2.966,5.012 0,0.033 -3.668,3.212 -1.47,3.113 2.914,-0.16 3.463,-3.411 6.165,-2.894 5.23,0.954 7.754,5.205 13.316,2.596 1.86,9.787 -14.906,-1.602 -16.567,8.377 -0.551,3.079 2.516,3.145 5.012,3.536 4.401,0.671 4.151,4.678 4.908,8.088 -0.006,0.05 -0.01,0.102 -0.017,0.151 -2.697,-0.754 -5.313,-1.243 -8.049,-1.718 -2.716,-0.456 -2.888,-4.211 -4.808,-4.607 -1.371,-0.279 -3.589,2.562 -4.609,3.185 -2.232,1.344 -4.171,1.913 -5.873,3.98 -2.881,3.495 -6.913,8.753 -7.344,13.322 -0.237,2.205 -0.265,4.436 -0.423,6.622 -0.16,2.158 5.866,-0.292 6.708,-0.478 6.098,-1.204 10.667,-0.264 15.62,3.51 5.987,4.542 5.43,9.602 4.112,16.342 -1.986,9.94 -0.219,30.585 15.137,23.282 -0.112,3.8 -3.49,6.039 -7.013,6.278 -3.806,0.257 -6.919,-3.537 -8.779,-6.364 -0.623,-0.921 -0.623,-7.356 -3.053,-6.35 -2.497,1.039 -1.807,7.628 -1.385,9.734 C -14.217,-7.198 -5.999,-4.039 0,0" /></g><g
  transform="translate(485.4327,391.8902)"
  id="g116"><path
             id="path118"
             style="fill:#ffffff;fill-opacity:1;fill-rule:nonzero;stroke:none"
             d="M 0,0 C 0.325,-0.371 0.722,-0.377 1.127,-0.019 0.881,0.232 0.597,0.484 0.325,0.735 0.206,0.484 0.1,0.259 0,0" /></g><g
  transform="translate(482.4084,402.4459)"
  id="g120"><path
             id="path122"
             style="fill:#ffffff;fill-opacity:1;fill-rule:nonzero;stroke:none"
             d="m 0,0 c -1.1,-0.206 -1.113,0 -1.558,-0.271 0.132,0.079 -0.066,-0.471 0,0 -0.119,-0.822 -0.45,-2.623 1.041,-2.43 0.172,0.9 0.351,1.807 0.517,2.701" /></g><g
  transform="translate(496.5452,401.247)"
  id="g124"><path
             id="path126"
             style="fill:#ffffff;fill-opacity:1;fill-rule:nonzero;stroke:none"
             d="m 0,0 c -5.768,0.636 -9.555,-2.682 -14.43,-4.423 -2.74,-0.967 -5.587,-2.199 -8.542,-1.033 -1.35,0.543 -4.992,3.258 -6.223,3.278 0.622,-7.556 6.694,-9.403 12.833,-6.549 2.794,1.311 5.011,3.589 7.932,4.741 C -5.993,-3.02 -0.22,-2.775 0,0" /></g><g
  transform="translate(492.6447,416.3578)"
  id="g128"><path
             id="path130"
             style="fill:#ffffff;fill-opacity:1;fill-rule:nonzero;stroke:none"
             d="M 0,0 C -1,-0.921 -5.204,0.404 -5.43,2.649 -5.562,3.973 1.59,1.457 0,0 m 32.127,-23.302 c -0.833,2.987 0.451,6.411 -0.569,9.39 -0.318,0.921 -1.999,1.834 -1.959,2.794 0.026,1.298 2.522,2.152 3.258,3.066 -0.82,0.065 -1.672,0.041 -2.473,0.255 -0.763,0.205 -1.337,0.708 -1.774,1.357 -0.417,0.62 -0.71,1.331 -1.043,1.994 -0.311,0.619 -0.614,1.242 -0.896,1.875 -0.091,0.203 -1.268,3.257 -0.979,3.286 -1.352,-0.139 -5.794,-2.132 -5.827,0.338 -0.008,1.126 5.31,1.377 6.522,2.198 1.675,1.133 2.093,2.596 0.04,3.583 C 24.421,7.798 22.049,7.955 19.91,7.372 17.703,6.769 16.669,5.391 15.153,3.805 15.069,3.717 14.978,3.63 14.863,3.592 14.056,3.326 13.891,5.113 13.98,5.578 c 0.168,0.881 0.842,1.467 1.538,1.959 0.736,0.519 1.571,0.87 2.419,1.16 0.831,0.284 1.739,0.373 2.508,0.823 -1.659,2.4 -5.316,3.597 -8.123,3.597 C 9.129,13.276 5.942,12.54 2.907,11.621 0.256,10.82 -2.333,9.83 -4.952,8.933 -6.284,8.476 -8.284,6.894 -9.741,7.091 c -0.251,0.042 -0.438,-1.383 -0.678,-2.62 -0.047,-0.294 -0.107,-0.57 -0.185,-0.828 -0.099,-0.384 -0.208,-0.702 -0.335,-0.849 -0.13,-0.153 -0.294,-0.302 -0.481,-0.45 -0.075,-0.063 -0.164,-0.119 -0.251,-0.176 -2.861,-2.025 -10.141,-3.732 -6.208,-8.392 1.364,-1.602 0.623,-2.954 1.337,-4.642 0.954,-2.258 5.193,-1.569 6.901,-0.96 2.463,0.868 11.667,5.284 13.534,2.244 2.384,-3.9 3.139,-9.276 0.768,-13.541 -2.278,-4.019 -8.628,-2.463 -12.283,-3.787 0.198,-2.152 0.172,-6.602 2.867,-7.338 2.876,-0.807 7.146,2.716 8.873,4.643 0.418,0.496 3.994,5.582 4.662,3.324 0.768,-2.669 -3.476,-7.463 -5.085,-9.224 -1.947,-2.073 -5.449,-3.225 -8.224,-3.172 -3.42,0.075 -6.072,1.864 -9.312,1.35 -0.086,-0.013 -0.171,-0.049 -0.257,-0.065 -0.387,-0.075 -0.778,-0.162 -1.185,-0.312 -5.986,-2.166 -14.15,-1.556 -12.296,6.874 -4.112,-0.722 -5.875,-5.423 -3.642,-8.847 1.165,-1.775 3.357,-3.059 5.389,-3.456 0.085,-0.015 0.215,-0.021 0.371,-0.022 0.167,0 0.352,0 0.56,10e-4 0.137,0.001 0.287,-0.003 0.437,-0.005 0.057,-10e-4 0.107,0 0.165,-0.002 1.231,-0.031 2.671,-0.238 2.487,-1.456 -0.252,-1.761 -4.728,-3.211 -6.297,-3.45 -4.815,-0.728 -8.111,-0.265 -12.297,1.894 -0.351,-4.568 4.841,-11.779 10.225,-10.998 1.497,0.203 2.962,0.614 4.456,0.84 0.933,0.141 1.988,0.358 2.797,-0.257 0.69,-0.524 1.596,-2.461 0.607,-3.088 -0.254,-0.162 -0.577,-0.153 -0.878,-0.138 -3.124,0.152 -6.176,0.39 -9.207,-0.588 -3.325,-1.073 -5.231,-3.252 -7.357,-5.854 -1.961,-2.423 -3.372,-3.88 -6.426,-4.834 -1.742,-0.539 -3.099,0.384 -4.011,1.866 -0.227,0.368 -2.227,4.576 -1.973,4.855 -3.82,-4.2 -0.228,-9.86 3.421,-12.734 1.826,-1.439 4.162,-2.752 6.542,-2.85 3.446,-0.143 6.917,1.752 9.871,3.305 1.983,1.043 3.871,2.253 5.767,3.443 1.307,0.821 3.671,2.917 5.267,2.838 0.686,-0.035 1.367,-0.547 1.441,-1.23 0.06,-0.547 -0.266,-1.079 -0.702,-1.416 -1.031,-0.796 -2.486,-0.92 -3.511,-1.752 -3.502,-2.847 -1.96,-6.291 -1.43,-10.111 0.954,-7.045 -10.357,-10.264 -10.859,-1.602 -7.457,-4.125 -4.655,-8.662 2.332,-10.808 5.105,-1.602 12.971,2.57 15.733,6.828 1.098,1.646 1.655,3.818 2.464,5.615 0.313,0.697 3.062,6.993 4.195,4.973 1.236,-2.202 -1.975,-5.164 -1.298,-7.562 1.02,-3.609 3.064,-8.505 6.565,-10.382 -0.736,0.394 0.381,5.409 0.632,6.141 0.771,2.248 2.345,4.068 4.054,5.671 3.775,3.556 6.152,7.661 8.032,12.456 1.007,2.522 2.166,-0.822 1.543,-2.444 -0.986,-2.357 -1.596,-5.138 -1.794,-7.694 -0.385,-5.43 3.323,-11.039 9.31,-10.297 -1.073,1.708 -2.424,2.755 -2.722,4.847 -0.497,3.688 2.312,5.171 4.192,7.774 1.522,2.112 2.993,4.801 2.853,7.482 -0.08,1.453 -0.692,2.812 -0.803,4.244 -0.091,1.167 0.14,7.673 2.36,6.951 0.055,-0.028 0.092,-0.076 0.123,-0.134 0.766,-0.829 -0.55,-5.275 -0.388,-6.617 0.362,-2.498 1.945,-5.708 4.128,-7.489 1.397,-1.14 5.487,-2.233 6.408,0.097 -0.734,0.395 -1.587,0.487 -2.375,0.764 -3.099,1.089 -3.708,4.873 -2.969,7.7 0.483,2.046 1.595,3.947 2.013,5.979 0.397,1.769 -3.232,4.258 -2.405,5.483 0.683,1.02 5.198,-3.694 7.285,-2.721 -1.358,2.913 -3.226,5.946 -2.372,9.316 0.847,3.331 1.544,6.715 2.206,10.092 0.37,2.073 2.033,7.012 -0.899,8.144 -0.975,0.378 -3.399,0.775 -3.922,1.887 -0.298,0.649 0.039,1.782 0.9,1.384 2.371,-1.125 5.483,-2.225 7.708,-0.052 0.762,0.775 -4.079,3.827 -4.596,5.548" /></g></g></g></g></svg>
